<?xml version="1.0" encoding="utf-8"?>
<!-- Generator: Adobe Illustrator 27.9.0, SVG Export Plug-In . SVG Version: 6.00 Build 0)  -->
<svg version="1.1" id="artwork" xmlns="http://www.w3.org/2000/svg" xmlns:xlink="http://www.w3.org/1999/xlink" x="0px" y="0px"
	 viewBox="0 0 135.1 40.4" style="enable-background:new 0 0 135.1 40.4;" xml:space="preserve">
<style type="text/css">
	.st0{fill:#FFFFFF;fill-opacity:0;}
	.st1{fill:#A7A6A6;}
	.st2{fill:#FFFFFF;}
	.st3{fill:#5BC9F4;}
	.st4{fill:url(#SVGID_1_);}
	.st5{fill:url(#SVGID_00000183927310260597650750000008199886187198068133_);}
	.st6{fill:url(#SVGID_00000168809972315290324580000017969700375148857016_);}
	.st7{fill:#FFFFFF;stroke:#FFFFFF;stroke-width:0.2;stroke-miterlimit:10;}
</style>
<g>
	<rect x="-9.9" y="-9.8" class="st0" width="155" height="60"/>
	<g>
		<path d="M130.1,40.2H5.1c-2.8,0-5-2.2-5-5v-30c0-2.8,2.2-5,5-5h125c2.8,0,5,2.2,5,5v30C135.1,37.9,132.9,40.2,130.1,40.2z"/>
	</g>
	<g>
		<g>
			<path class="st1" d="M130.1,1c2.3,0,4.2,1.9,4.2,4.2v30c0,2.3-1.9,4.2-4.2,4.2H5.1c-2.3,0-4.2-1.9-4.2-4.2v-30
				C0.9,2.9,2.8,1,5.1,1H130.1 M130.1,0.2H5.1c-2.8,0-5,2.2-5,5v30c0,2.8,2.2,5,5,5h125c2.8,0,5-2.2,5-5v-30
				C135.1,2.5,132.9,0.2,130.1,0.2L130.1,0.2z"/>
		</g>
	</g>
	<path class="st2" d="M68.2,22c-2.4,0-4.3,1.8-4.3,4.3c0,2.4,1.9,4.3,4.3,4.3s4.3-1.8,4.3-4.3C72.5,23.7,70.6,22,68.2,22z
		 M68.2,28.8c-1.3,0-2.4-1.1-2.4-2.6s1.1-2.6,2.4-2.6s2.4,1,2.4,2.6C70.6,27.7,69.5,28.8,68.2,28.8z M58.9,22
		c-2.4,0-4.3,1.8-4.3,4.3c0,2.4,1.9,4.3,4.3,4.3s4.3-1.8,4.3-4.3C63.2,23.7,61.3,22,58.9,22z M58.9,28.8c-1.3,0-2.4-1.1-2.4-2.6
		s1.1-2.6,2.4-2.6s2.4,1,2.4,2.6C61.3,27.7,60.2,28.8,58.9,28.8z M47.8,23.3v1.8h4.3c-0.1,1-0.5,1.8-1,2.3c-0.6,0.6-1.6,1.3-3.3,1.3
		c-2.7,0-4.7-2.1-4.7-4.8c0-2.7,2.1-4.8,4.7-4.8c1.4,0,2.5,0.6,3.3,1.3l1.3-1.3c-1.1-1-2.5-1.8-4.5-1.8c-3.6,0-6.7,3-6.7,6.6
		s3.1,6.6,6.7,6.6c2,0,3.4-0.6,4.6-1.9c1.2-1.2,1.6-2.9,1.6-4.2c0-0.4,0-0.8-0.1-1.1C54,23.3,47.8,23.3,47.8,23.3z M93.2,24.7
		c-0.4-1-1.4-2.7-3.6-2.7s-4,1.7-4,4.3c0,2.4,1.8,4.3,4.2,4.3c1.9,0,3.1-1.2,3.5-1.9l-1.4-1c-0.5,0.7-1.1,1.2-2.1,1.2
		s-1.6-0.4-2.1-1.3l5.7-2.4L93.2,24.7z M87.4,26.1c0-1.6,1.3-2.5,2.2-2.5c0.7,0,1.4,0.4,1.6,0.9L87.4,26.1z M82.7,30.2h1.9V17.7
		h-1.9V30.2z M79.7,22.9L79.7,22.9c-0.5-0.5-1.3-1-2.3-1c-2.1,0-4.1,1.9-4.1,4.3s1.9,4.2,4.1,4.2c1,0,1.8-0.5,2.2-1h0.1V30
		c0,1.6-0.9,2.5-2.3,2.5c-1.1,0-1.9-0.8-2.1-1.5l-1.6,0.7c0.5,1.1,1.7,2.5,3.8,2.5c2.2,0,4-1.3,4-4.4v-7.6h-1.8
		C79.7,22.2,79.7,22.9,79.7,22.9z M77.5,28.8c-1.3,0-2.4-1.1-2.4-2.6s1.1-2.6,2.4-2.6s2.3,1.1,2.3,2.6
		C79.8,27.7,78.8,28.8,77.5,28.8z M101.9,17.7h-4.5v12.5h1.9v-4.7h2.6c2.1,0,4.1-1.5,4.1-3.9C106,19.2,104,17.7,101.9,17.7z
		 M102,23.7h-2.7v-4.3h2.7c1.4,0,2.2,1.2,2.2,2.1C104.1,22.6,103.3,23.7,102,23.7z M113.5,21.9c-1.4,0-2.8,0.6-3.3,1.9l1.7,0.7
		c0.4-0.7,1-0.9,1.7-0.9c1,0,1.9,0.6,2,1.6v0.1c-0.3-0.2-1.1-0.5-1.9-0.5c-1.8,0-3.6,1-3.6,2.8c0,1.7,1.5,2.8,3.1,2.8
		c1.3,0,1.9-0.6,2.4-1.2h0.1v1h1.8v-4.8C117.3,23.2,115.6,21.9,113.5,21.9z M113.3,28.8c-0.6,0-1.5-0.3-1.5-1.1c0-1,1.1-1.3,2-1.3
		c0.8,0,1.2,0.2,1.7,0.4C115.3,28,114.3,28.8,113.3,28.8z M123.8,22.2l-2.1,5.4h-0.1l-2.2-5.4h-2l3.3,7.6l-1.9,4.2h1.9l5.1-11.8
		C125.8,22.2,123.8,22.2,123.8,22.2z M107,30.2h1.9V17.7H107V30.2z"/>
	<g>
		<g>
			<g>
				<path class="st3" d="M10.5,7.7c-0.3,0.4-0.4,0.8-0.4,1.5v22c0,0.6,0.2,1.1,0.5,1.4l0.1,0.1l12.4-12.4v-0.1v-0.1L10.5,7.7
					L10.5,7.7z"/>
				
					<linearGradient id="SVGID_1_" gradientUnits="userSpaceOnUse" x1="31.2338" y1="22.1531" x2="7.057" y2="22.1531" gradientTransform="matrix(1 0 0 -1 0 42.4063)">
					<stop  offset="0" style="stop-color:#FEE000"/>
					<stop  offset="0.1941" style="stop-color:#FCCF0B"/>
					<stop  offset="0.5469" style="stop-color:#FAB318"/>
					<stop  offset="0.8279" style="stop-color:#F9A21B"/>
					<stop  offset="1" style="stop-color:#F99B1C"/>
				</linearGradient>
				<path class="st4" d="M27.1,24.5L23,20.4v-0.2v-0.1l4.1-4.1l0.1,0.1l4.9,2.8c1.4,0.8,1.4,2.1,0,2.9L27.1,24.5L27.1,24.5z"/>
				
					<linearGradient id="SVGID_00000100356501949727713510000003636579123293871283_" gradientUnits="userSpaceOnUse" x1="24.9557" y1="19.9139" x2="2.2162" y2="-2.8256" gradientTransform="matrix(1 0 0 -1 0 42.4063)">
					<stop  offset="0" style="stop-color:#EF4547"/>
					<stop  offset="1" style="stop-color:#C6186D"/>
				</linearGradient>
				<path style="fill:url(#SVGID_00000100356501949727713510000003636579123293871283_);" d="M27.2,24.4L23,20.2L10.5,32.7
					c0.5,0.5,1.2,0.5,2.1,0.1L27.2,24.4"/>
				
					<linearGradient id="SVGID_00000022539989139620254540000007208560987103893141_" gradientUnits="userSpaceOnUse" x1="2.0898" y1="47.3083" x2="20.656" y2="28.7421" gradientTransform="matrix(1 0 0 -1 0 42.4063)">
					<stop  offset="0" style="stop-color:#279E6F"/>
					<stop  offset="0.3168" style="stop-color:#4DAB6D"/>
					<stop  offset="0.7398" style="stop-color:#6ABA6A"/>
					<stop  offset="1" style="stop-color:#74C169"/>
				</linearGradient>
				<path style="fill:url(#SVGID_00000022539989139620254540000007208560987103893141_);" d="M27.2,16L12.6,7.7
					c-0.9-0.5-1.6-0.4-2.1,0.1L23,20.2L27.2,16z"/>
			</g>
		</g>
	</g>
</g>
<g>
	<path class="st7" d="M43.1,13.3c-0.4,0-0.8-0.1-1.1-0.4c-0.3-0.2-0.5-0.6-0.7-1l0.7-0.3c0.2,0.6,0.5,0.9,1.1,0.9
		c0.4,0,0.6-0.1,0.8-0.3c0.2-0.2,0.3-0.5,0.3-0.9V7.2H45v4.1c0,0.7-0.2,1.2-0.5,1.5C44.1,13.2,43.7,13.3,43.1,13.3z"/>
	<path class="st7" d="M49.8,7.9h-2.7v1.9h2.5v0.7h-2.5v1.9h2.7v0.8h-3.5v-6h3.5V7.9z"/>
	<path class="st7" d="M53.1,13.2h-0.8V7.9h-1.7V7.2h4.1v0.7h-1.6V13.2z"/>
	<path class="st7" d="M55.4,13.2v-0.8l3.2-4.5h-3.1V7.2h4V8l-3.2,4.5h3.2v0.7H55.4z"/>
	<path class="st7" d="M62.6,13.2h-0.8V7.9h-1.7V7.2h4.1v0.7h-1.7L62.6,13.2L62.6,13.2z"/>
	<path class="st7" d="M67.3,13.2v-6h2.2c0.5,0,0.9,0.2,1.2,0.5C71,8,71.2,8.4,71.2,8.9c0,0.3-0.1,0.5-0.2,0.8
		c-0.1,0.2-0.3,0.4-0.6,0.5l0,0c0.3,0.1,0.5,0.3,0.7,0.5s0.3,0.5,0.3,0.9c0,0.5-0.2,0.9-0.5,1.2c-0.4,0.2-0.8,0.4-1.3,0.4H67.3z
		 M68.1,9.8h1.4c0.3,0,0.5-0.1,0.7-0.3s0.3-0.4,0.3-0.6s-0.1-0.4-0.3-0.6C70,8.1,69.8,8,69.5,8h-1.4V9.8z M68.1,12.5h1.6
		c0.3,0,0.5-0.1,0.7-0.3s0.3-0.4,0.3-0.7c0-0.2-0.1-0.5-0.3-0.7c-0.2-0.2-0.4-0.3-0.7-0.3h-1.6V12.5z"/>
	<path class="st7" d="M76,7.9h-2.7v1.9h2.5v0.7h-2.5v1.9H76v0.8h-3.5v-6H76V7.9z"/>
	<path class="st7" d="M77.2,13.2v-6H78v6H77.2z"/>
</g>
</svg>
